<svg width="100" height="61" viewBox="0 0 100 61" fill="none" xmlns="http://www.w3.org/2000/svg">
<path d="M23.5957 15.7346H42.4566V17.2338H25.3246V28.5164H41.4352V30.0154H25.3246V42.4027H42.6531V43.9018H23.5957V15.7346ZM44.1465 15.7346H46.1504L55.0307 28.1219L64.1074 15.7344L76.4533 0L56.1701 29.4238L66.6223 43.9018H64.5396L55.0307 30.7256L45.4822 43.9018H43.4391L53.9697 29.4236L44.1463 15.7346H44.1465ZM67.3688 17.2338V15.7344H88.8625V17.2336H78.9604V43.9016H77.2314V17.2338H67.3688V17.2338ZM0 15.7344H2.16113L31.9619 60.3287L19.6469 43.9016L1.80742 17.8648L1.72891 43.9019H0V15.7344ZM88.6883 41.95C88.335 41.95 88.0701 41.6766 88.0701 41.3227C88.0701 40.9691 88.335 40.6953 88.6883 40.6953C89.0457 40.6953 89.3064 40.9689 89.3064 41.3227C89.3064 41.6764 89.0457 41.95 88.6883 41.95ZM90.3871 40.2996H91.3123C91.3248 40.8006 91.6906 41.1375 92.2289 41.1375C92.8303 41.1375 93.1709 40.7754 93.1709 40.0975V35.8025H94.1129V40.1016C94.1129 41.3227 93.4064 42.026 92.2373 42.026C91.1396 42.026 90.3871 41.3437 90.3871 40.2994V40.2996ZM95.3449 40.2449H96.2785C96.3584 40.8217 96.9219 41.1879 97.7336 41.1879C98.4904 41.1879 99.0455 40.7963 99.0455 40.2574C99.0455 39.7943 98.6922 39.5164 97.8891 39.327L97.1068 39.1375C96.0092 38.8805 95.509 38.35 95.509 37.4574C95.509 36.3754 96.392 35.6553 97.7166 35.6553C98.9486 35.6553 99.8486 36.3752 99.9033 37.3984H98.9865C98.8982 36.8385 98.4103 36.4889 97.7039 36.4889C96.9598 36.4889 96.4637 36.8469 96.4637 37.3941C96.4637 37.8277 96.783 38.0764 97.5736 38.2615L98.2422 38.4258C99.4869 38.7164 100 39.2217 100 40.1353C100 41.2975 99.1002 42.026 97.6621 42.026C96.3164 42.026 95.4121 41.3311 95.3449 40.2447V40.2449Z" fill="black"/>
</svg>
