<svg width="50" height="57" viewBox="0 0 50 57" fill="none" xmlns="http://www.w3.org/2000/svg">
<path d="M23.6511 56.5509C24.0604 56.7874 24.5247 56.912 24.9975 56.912C25.4702 56.912 25.9345 56.7874 26.3438 56.5509L48.6521 43.6779C49.062 43.4416 49.4024 43.1015 49.639 42.6917C49.8757 42.282 50.0002 41.8172 50 41.344V15.5783C49.9999 15.1053 49.8754 14.6408 49.6391 14.2312C49.4027 13.8216 49.0628 13.4813 48.6534 13.2446L26.3452 0.360997C25.9354 0.1245 25.4705 0 24.9974 0C24.5242 0 24.0594 0.1245 23.6495 0.360997L1.34714 13.2446C0.937609 13.4812 0.597541 13.8214 0.361081 14.231C0.124622 14.6406 9.31843e-05 15.1053 0 15.5783V41.3458C0 42.3075 0.513708 43.1967 1.34773 43.6777L23.6509 56.5507" fill="#76D04B"/>
<path d="M39.4423 22.3144L38.4476 21.7418C39.9773 19.4854 40.8915 16.0928 39.7452 11.0208C39.7452 11.0208 37.1636 18.256 31.9741 18.0162L25.8978 14.5196C25.6711 14.3866 25.4148 14.312 25.1522 14.3027H25.012C24.7487 14.3127 24.4919 14.3872 24.2642 14.5196L18.1871 18.016C12.9982 18.2565 10.416 11.0206 10.416 11.0206C9.26887 16.0924 10.1846 19.485 11.714 21.7416L10.7193 22.3144C10.4698 22.4585 10.2627 22.6658 10.1189 22.9154C9.97507 23.165 9.89953 23.4481 9.8999 23.7362L9.92982 44.7249C9.92982 45.0179 10.0814 45.2891 10.3385 45.4316C10.461 45.5061 10.6015 45.5454 10.7448 45.5454C10.8881 45.5454 11.0286 45.5061 11.151 45.4316L19.2006 40.8221C19.71 40.5196 20.0198 39.986 20.0198 39.4025V29.5972C20.0198 29.0125 20.3295 28.4705 20.8366 28.1809L24.2644 26.207C24.5131 26.0616 24.7962 25.9853 25.0843 25.986C25.3632 25.986 25.6498 26.0584 25.8982 26.2068L29.3248 28.1807C29.5738 28.3237 29.7807 28.53 29.9243 28.7787C30.068 29.0274 30.1433 29.3096 30.1428 29.5968V39.4023C30.1428 39.9856 30.4566 40.5233 30.9629 40.822L39.0105 45.431C39.1341 45.5053 39.2755 45.5446 39.4196 45.5446C39.5638 45.5446 39.7052 45.5053 39.8287 45.431C39.9525 45.3592 40.0551 45.2561 40.1264 45.1321C40.1977 45.008 40.2351 44.8674 40.2349 44.7243L40.2611 23.7356C40.2605 23.1455 39.9509 22.6046 39.4425 22.314V22.3142L39.4423 22.3144Z" fill="#4F4D3F"/>
</svg>
