<svg width="32" height="31" viewBox="0 0 32 31" fill="none" xmlns="http://www.w3.org/2000/svg">
<path d="M15.8004 2.30988C8.31377 2.30685 2.25 8.36759 2.25 15.8482C2.25 21.7636 6.04326 26.792 11.326 28.6387C12.0374 28.8173 11.9284 28.3117 11.9284 27.9666V25.6204C7.82031 26.1018 7.65381 23.3832 7.37832 22.9291C6.82129 21.9785 5.50439 21.7363 5.89795 21.2822C6.8334 20.8009 7.78701 21.4033 8.89199 23.0351C9.69121 24.2188 11.2503 24.019 12.0404 23.8222C12.213 23.1108 12.5823 22.475 13.0909 21.9816C8.83447 21.2187 7.06045 18.6212 7.06045 15.5333C7.06045 14.0348 7.55391 12.6573 8.52266 11.5463C7.90508 9.71476 8.58018 8.1466 8.671 7.91349C10.4299 7.75607 12.2584 9.17286 12.4007 9.28488C13.3997 9.01544 14.541 8.87316 15.8186 8.87316C17.1021 8.87316 18.2465 9.0215 19.2546 9.29396C19.5967 9.03361 21.292 7.81661 22.9268 7.96495C23.0146 8.19806 23.6745 9.7299 23.0933 11.5372C24.0741 12.6513 24.5736 14.0408 24.5736 15.5424C24.5736 18.6363 22.7875 21.2368 18.5189 21.9876C18.8846 22.3472 19.1749 22.776 19.3729 23.249C19.5709 23.722 19.6727 24.2297 19.6724 24.7425V28.1483C19.6966 28.4207 19.6724 28.6901 20.1265 28.6901C25.4879 26.8828 29.3478 21.8181 29.3478 15.8512C29.3478 8.36759 23.281 2.30988 15.8004 2.30988Z" fill="#EEEEEE"/>
</svg>
