<svg width="31" height="31" viewBox="0 0 31 31" fill="none" xmlns="http://www.w3.org/2000/svg">
<path d="M15.499 0C11.2859 0 10.7609 0.0203438 9.11207 0.0900938C7.45648 0.171469 6.3366 0.428187 5.34848 0.811813C4.3143 1.20224 3.37771 1.81352 2.60401 2.60303C1.81229 3.37493 1.20067 4.31203 0.812789 5.3475C0.429164 6.33563 0.172445 7.4555 0.0910703 9.11109C0.0164766 10.7609 0.000976562 11.285 0.000976562 15.4981C0.000976562 19.7112 0.0213203 20.2362 0.0910703 21.885C0.172445 23.5358 0.429164 24.6605 0.812789 25.6486C1.20322 26.6828 1.81449 27.6194 2.60401 28.3931C3.3759 29.1848 4.31301 29.7964 5.34848 30.1843C6.3366 30.5631 7.46132 30.8247 9.11207 30.906C10.7619 30.9806 11.2859 30.9961 15.499 30.9961C19.7121 30.9961 20.2372 30.9758 21.886 30.906C23.5368 30.8247 24.6615 30.5621 25.6496 30.1843C26.6838 29.7939 27.6204 29.1826 28.3941 28.3931C29.1868 27.622 29.7986 26.6847 30.1853 25.6486C30.5641 24.6605 30.8256 23.5358 30.907 21.885C30.9816 20.2353 30.9971 19.7112 30.9971 15.4981C30.9971 11.285 30.9768 10.7599 30.907 9.11109C30.8256 7.46034 30.5631 6.32981 30.1853 5.3475C29.7949 4.31332 29.1836 3.37674 28.3941 2.60303C27.623 1.81029 26.6857 1.19852 25.6496 0.811813C24.6615 0.428187 23.5368 0.171469 21.886 0.0900938C20.2362 0.0155 19.7121 0 15.499 0ZM15.499 2.79C19.6366 2.79 20.1306 2.81034 21.7659 2.88009C23.2742 2.95081 24.0957 3.20269 24.6411 3.41581C25.3154 3.66471 25.9257 4.06085 26.4275 4.57541C26.9412 5.07511 27.3358 5.68399 27.5823 6.35694C27.7954 6.90234 28.0473 7.72384 28.118 9.23219C28.1877 10.8674 28.2081 11.3625 28.2081 15.499C28.2081 19.6356 28.1877 20.1306 28.1122 21.7659C28.0308 23.2742 27.7789 24.0957 27.5668 24.6411C27.2732 25.3687 26.9458 25.8773 26.4052 26.4275C25.9017 26.9388 25.2918 27.3331 24.6189 27.5823C24.0802 27.7954 23.2471 28.0472 21.7329 28.118C20.089 28.1877 19.6046 28.2081 15.4564 28.2081C11.3082 28.2081 10.8248 28.1877 9.17891 28.1122C7.67057 28.0308 6.83841 27.7789 6.29301 27.5667C5.55676 27.2732 5.05204 26.9458 4.51148 26.4052C3.96607 25.8598 3.61926 25.3406 3.35188 24.6188C3.13488 24.0802 2.88688 23.2471 2.80648 21.7329C2.75126 20.1083 2.7251 19.6046 2.7251 15.4758C2.7251 11.3489 2.75126 10.8442 2.80648 9.19925C2.88688 7.68509 3.13488 6.85391 3.35188 6.31334C3.61926 5.57613 3.96704 5.07237 4.51148 4.52697C5.05107 3.98737 5.55676 3.63862 6.29301 3.36544C6.83841 3.15328 7.65023 2.90141 9.16438 2.82584C10.8084 2.76675 11.2927 2.74544 15.4351 2.74544L15.499 2.79ZM15.499 7.54366C14.4541 7.54327 13.4193 7.74881 12.4538 8.14852C11.4883 8.54823 10.6111 9.13427 9.8722 9.87316C9.13331 10.6121 8.54727 11.4893 8.14756 12.4548C7.74785 13.4203 7.54231 14.4551 7.5427 15.5C7.54231 16.5449 7.74785 17.5797 8.14756 18.5452C8.54727 19.5107 9.13331 20.3879 9.8722 21.1268C10.6111 21.8657 11.4883 22.4518 12.4538 22.8515C13.4193 23.2512 14.4541 23.4567 15.499 23.4563C16.544 23.4567 17.5788 23.2512 18.5443 22.8515C19.5097 22.4518 20.387 21.8657 21.1259 21.1268C21.8648 20.3879 22.4508 19.5107 22.8505 18.5452C23.2502 17.5797 23.4558 16.5449 23.4554 15.5C23.4558 14.4551 23.2502 13.4203 22.8505 12.4548C22.4508 11.4893 21.8648 10.6121 21.1259 9.87316C20.387 9.13427 19.5097 8.54823 18.5443 8.14852C17.5788 7.74881 16.544 7.54327 15.499 7.54366ZM15.499 20.6663C12.6432 20.6663 10.3327 18.3559 10.3327 15.5C10.3327 12.6441 12.6432 10.3337 15.499 10.3337C18.3549 10.3337 20.6654 12.6441 20.6654 15.5C20.6654 18.3559 18.3549 20.6663 15.499 20.6663ZM25.636 7.22591C25.6355 7.71964 25.439 8.19298 25.0897 8.54193C24.7404 8.89087 24.2669 9.08687 23.7731 9.08687C23.529 9.08687 23.2873 9.03879 23.0617 8.94536C22.8362 8.85194 22.6312 8.715 22.4586 8.54238C22.286 8.36975 22.149 8.16481 22.0556 7.93926C21.9622 7.71372 21.9141 7.47198 21.9141 7.22784C21.9141 6.98371 21.9622 6.74197 22.0556 6.51642C22.149 6.29088 22.286 6.08594 22.4586 5.91331C22.6312 5.74068 22.8362 5.60375 23.0617 5.51032C23.2873 5.4169 23.529 5.36881 23.7731 5.36881C24.7971 5.36881 25.636 6.20194 25.636 7.22591Z" fill="#EEEEEE"/>
</svg>
